<svg version="1.2" xmlns="http://www.w3.org/2000/svg" viewBox="0 0 449 828" width="449" height="828">
	<title>42_logo-svg</title>
	<style>
		.s0 { fill: #000000 } 
	</style>
	<path id="polygon5" class="s0" d="m-448 464.6h330.1v165.4h164.7v-298.9h-329.5l329.5-330.2h-164.7l-330.1 330.2z"/>
	<path id="polygon7" class="s0" d="m117.9 166.2l164.8-165.3h-164.8z"/>
	<path id="polygon9" class="s0" d="m282.7 166.2l-164.8 164.9v164.8h164.8v-164.8l165.3-164.9v-165.3h-165.3z"/>
	<path id="polygon11" class="s0" d="m448 331.1l-165.3 164.8h165.3z"/>
	<path id="CLUSTER" class="s0" aria-label="CLUSTER"  d="m-290.1 727.6l7.1-44.3q-16.2-7.2-32.6-7.2-15 0-30.3 6.3-15.3 6-27.5 16.7-11.7 10.4-19.2 24-7.6 13.3-9.8 28-1.2 7-1.2 13.2 0 24.3 15.3 40.6 9.6 9.9 22.4 15.4 13 5.5 27.7 5.5 7.6 0 14.2-1.4 6.7-1.5 18.4-4.8l1-0.4 7.1-44.3q-6.9 7-16.2 11.1-9 4-18.1 4-15.2 0-24.1-8.7-8.8-8.7-8.8-22.8 0-3.6 0.5-7.2 1.3-8.3 5.1-15.4 4-7.2 9.8-12.5 6-5.4 13.6-8.4 7.5-3 15.8-3 9.6 0 17.5 4.1 7.9 4 12.3 11.5zm49.7 63.1l17.6-110.8h-37l-22.4 142.1h81.2l4.9-31.3zm197.1-110.8h-36.9l-11.7 74.8q-1.3 8.3-3.2 14.9-1.7 6.4-5.1 11.9-3.2 5.3-8.8 8.7-5.7 3.2-14.2 3.2-11.5 0-16-5.9-4.5-5.8-4.5-16 0-6.2 1.7-16.8l11.7-74.8h-37l-12.6 79.9q-2.3 14.3-2.3 22.3 0 8.2 2.1 15.2 2.3 6.8 7.2 12.6 7.1 8.3 19 12.1 12.1 3.8 25.6 3.8 13.6 0 26.8-3.8 13.2-3.8 22.8-12.1 10.9-9.2 15.4-20.9 4.8-11.7 7.4-29.2zm95.7 36.6l19.2-28.7q-8.4-5.2-20.1-8.5-11.7-3.2-22.4-3.2-10.8 0-20.4 3.4-9.4 3.4-17 9.8-7.5 6.3-12.6 15.1-4.9 8.7-6.6 19.4-0.9 4.9-0.9 9.1 0 7.3 2.2 12.4 2.5 4.9 6.6 8.3 4.4 3.2 9.8 5.5 5.7 2.2 14.4 4.9 0.3 0 0.9 0.3 4 1.2 6.8 2.3 2.8 0.9 5.6 2.6 3 1.5 4.7 4 1.9 2.3 1.9 5.3 0 0.3 0 0.7-0.2 0.6-0.2 1-1.1 6.9-6.9 10.7-5.9 3.6-13.2 3.6-8.7 0-16.2-4-7.6-3.9-14.2-10.7l-20.5 29.8q9.6 7.7 21.9 12 12.2 4.2 25.4 4.2 11.3 0 22.2-3.2 11.2-3.4 20.2-10.2 9-6.8 13.9-16.6 4.9-10 6.8-21.7 0.6-3.7 0.6-7.1 0-12.7-7.7-20-7.8-7.3-21.7-11.7l-9.1-2.8q-6.2-2.1-10.3-4.7-4-2.7-4-7.4 0 0 0-0.7 0.2-0.4 0.2-0.8 0.8-5.4 6.2-8.6 5.7-3.2 11.5-3.2 6.6 0 12.5 2.6 6 2.4 10.5 6.8zm77.8 105.5l17.6-110.8h30.5l4.9-31.3h-98l-4.9 31.3h30.5l-17.5 110.8zm98.4-110.8h43.9l4.9-31.3h-80.9l-22.4 142.1h80.9l4.9-31.3h-44l4-24.5h41.7l4.9-31.3h-41.7zm167.3 110.8l-35.4-58.2q15.1-2.6 25.1-13.7 10-11.2 12.4-26.4 0.8-4.7 0.8-8.9 0-17.3-11.7-26-11.7-8.8-31.7-8.8h-55.2l-22.4 142h36.9l8.7-54.6h0.4l26.2 54.6zm-68.8-78.3l5.6-35.5h3.6q4.7 0 8.7 0.6 3.9 0.6 7.1 2.1 3.4 1.5 5.3 4.3 1.9 2.8 1.9 7.2 0 1.7-0.2 3.5-0.9 5.5-3.8 9.1-2.6 3.6-6.5 5.4-4 1.9-8.5 2.7-4.6 0.6-9.6 0.6z"/>
</svg>