<svg version="1.2" xmlns="http://www.w3.org/2000/svg" viewBox="0 0 448 828">
	<style>
		.s0 { fill: currentColor } 
	</style>
	<path class="s0" d="m-449 464.6h330.1v165.4h164.7v-298.9h-329.5l329.5-330.2h-164.7l-330.1 330.2z" />
	<path class="s0" d="m116.9 166.2l164.8-165.3h-164.8z" />
	<path class="s0" d="m281.7 166.2l-164.8 164.9v164.8h164.8v-164.8l165.3-164.9v-165.3h-165.3z" />
	<path class="s0" d="m447 331.1l-165.3 164.8h165.3z" />
	<path class="s0" fill-rule="evenodd" d="m-303.4 716.1q-7.9-4.1-17.5-4.1-8.3 0-15.8 3-7.6 3-13.6 8.4-5.8 5.3-9.8 12.5-3.8 7.1-5.1 15.4-0.5 3.6-0.5 7.2 0 14.1 8.8 22.8 8.9 8.7 24.1 8.7 9.1 0 18.1-4 9.3-4.1 16.2-11.1l-7.1 44.3-1 0.4q-11.7 3.3-18.4 4.8-6.6 1.4-14.2 1.4-14.7 0-27.7-5.5-12.8-5.5-22.4-15.4-15.3-16.3-15.3-40.6 0-6.2 1.2-13.2 2.2-14.7 9.8-28 7.5-13.6 19.2-24 12.2-10.7 27.5-16.7 15.3-6.3 30.3-6.3 16.4 0 32.6 7.2l-7.1 44.3q-4.4-7.5-12.3-11.5zm106.3 74.6l-4.9 31.3h-81.2l22.4-142.1h37l-17.6 110.8zm140.2-30.9q-2.6 17.5-7.4 29.2-4.5 11.7-15.4 20.9-9.6 8.3-22.8 12.1-13.2 3.8-26.8 3.8-13.5 0-25.6-3.8-11.9-3.8-19-12.1-4.9-5.8-7.2-12.6-2.1-7-2.1-15.2 0-8 2.3-22.3l12.6-79.9h37l-11.7 74.8q-1.7 10.6-1.7 16.8 0 10.2 4.5 16 4.5 5.9 16 5.9 8.5 0 14.2-3.2 5.6-3.4 8.8-8.7 3.4-5.5 5.1-11.9 1.9-6.6 3.2-14.9l11.7-74.8h36.9zm97.8-50.1q-5.9-2.6-12.5-2.6-5.8 0-11.5 3.2-5.4 3.2-6.2 8.6 0 0.4-0.2 0.8 0 0.7 0 0.7 0 4.7 4 7.4 4.1 2.6 10.3 4.7l9.1 2.8q13.9 4.4 21.7 11.7 7.7 7.3 7.7 20 0 3.4-0.6 7.1-1.9 11.7-6.8 21.7-4.9 9.8-13.9 16.6-9 6.8-20.2 10.2-10.9 3.2-22.2 3.2-13.2 0-25.4-4.2-12.3-4.3-21.9-12l20.5-29.8q6.6 6.8 14.2 10.7 7.5 4 16.2 4 7.3 0 13.2-3.6 5.8-3.8 6.9-10.7 0-0.4 0.2-1 0-0.4 0-0.7 0-3-1.9-5.3-1.7-2.5-4.7-4-2.8-1.7-5.6-2.6-2.8-1.1-6.8-2.3-0.6-0.3-0.9-0.3-8.7-2.7-14.4-4.9-5.4-2.3-9.8-5.5-4.1-3.4-6.6-8.3-2.2-5.1-2.2-12.4 0-4.2 0.9-9.1 1.7-10.7 6.6-19.4 5.1-8.8 12.6-15.1 7.6-6.4 17-9.8 9.6-3.4 20.4-3.4 10.7 0 22.4 3.2 11.7 3.3 20.1 8.5l-19.2 28.7q-4.5-4.4-10.5-6.8zm51.4 112.3l17.5-110.8h-30.5l4.9-31.3h98l-4.9 31.3h-30.5l-17.6 110.8zm131.5-87.1h41.7l-4.9 31.3h-41.7l-4 24.5h44l-4.9 31.3h-80.9l22.4-142.1h80.9l-4.9 31.3h-43.9zm125.2 87.1l-26.2-54.6h-0.4l-8.7 54.6h-36.9l22.4-142h55.2q20 0 31.7 8.8 11.7 8.7 11.7 26 0 4.2-0.8 8.9-2.4 15.2-12.4 26.4-10 11.1-25.1 13.7l35.4 58.2zm-19.3-78.3q5 0 9.6-0.6 4.5-0.8 8.5-2.7 3.9-1.8 6.5-5.4 2.9-3.6 3.8-9.1 0.2-1.8 0.2-3.5 0-4.4-1.9-7.2-1.9-2.8-5.3-4.3-3.2-1.5-7.1-2.1-4-0.6-8.7-0.6h-3.6l-5.6 35.5z" />
</svg>
